<?xml version="1.0" standalone="no"?>
<!DOCTYPE svg PUBLIC "-//W3C//DTD SVG 20010904//EN"
 "http://www.w3.org/TR/2001/REC-SVG-20010904/DTD/svg10.dtd">
<svg version="1.0" xmlns="http://www.w3.org/2000/svg"
 width="120.000000pt" height="120.000000pt" viewBox="0 0 120.000000 120.000000"
 preserveAspectRatio="xMidYMid meet">
<metadata>
Created by potrace 1.11, written by Peter Selinger 2001-2013
</metadata>
<g transform="translate(0.000000,120.000000) scale(0.100000,-0.100000)"
fill="#000000" stroke="none">
<path d="M567 1073 c-12 -20 -22 -42 -23 -48 -1 -5 -18 -46 -39 -90 -20 -44
-44 -96 -52 -115 -9 -19 -44 -94 -78 -166 -35 -72 -66 -147 -70 -165 -27 -119
19 -270 105 -342 128 -108 302 -90 406 42 24 31 44 64 44 74 0 9 4 17 8 17 5
0 9 6 10 13 0 6 3 23 7 37 11 45 6 144 -9 187 -8 23 -32 77 -53 120 -20 43
-38 80 -39 83 0 3 -5 16 -11 30 -6 14 -39 90 -73 170 -89 210 -95 217 -133
153z"/>
</g>
</svg>
